<?xml version="1.0" encoding="utf-8"?>
<!DOCTYPE svg PUBLIC "-//W3C//DTD SVG 20010904//EN" "http://www.w3.org/TR/2001/REC-SVG-20010904/DTD/svg10.dtd">
<svg version="1.0" xmlns="http://www.w3.org/2000/svg" width="258pt" height="258pt" viewBox="0 0 258 258" style="" preserveAspectRatio="xMidYMid meet">
<g fill="#FFFFFFFF" stroke="#FFFFFFFF">
<path d="M 1.000 129.500 L 1.000 240.000 129.000 240.000 L 257.000 240.000 257.000 129.500 L 257.000 19.000 129.000 19.000 L 1.000 19.000 1.000 129.500 M 129.857 41.694 C 132.064 44.276 135.091 48.803 136.584 51.754 C 139.251 57.024 139.275 57.242 137.973 64.142 C 136.326 72.872 136.435 72.964 148.421 72.985 C 155.430 72.997 157.745 72.635 159.221 71.300 C 161.656 69.096 167.262 69.119 169.484 71.342 C 170.442 72.299 173.621 74.615 176.549 76.488 C 182.487 80.287 184.000 82.416 184.000 86.974 C 184.000 89.404 182.636 91.539 177.732 96.790 C 174.285 100.480 168.870 107.416 165.700 112.203 C 159.069 122.215 155.997 125.000 151.588 125.000 C 147.534 125.000 144.679 122.950 142.583 118.535 C 140.872 114.927 139.606 114.331 137.070 115.936 C 135.757 116.767 135.225 120.334 132.747 144.955 C 132.528 147.130 133.002 147.498 136.890 148.177 C 139.305 148.599 142.040 149.631 142.969 150.472 C 145.456 152.722 147.110 152.383 152.571 148.500 C 161.040 142.479 162.177 144.068 155.941 153.205 C 151.205 160.143 151.120 159.916 160.881 166.454 C 164.521 168.892 170.832 173.837 174.905 177.443 C 178.978 181.049 182.837 184.000 183.481 184.000 C 186.439 184.000 188.799 188.567 189.484 195.615 C 190.162 202.583 190.111 202.804 187.054 206.286 C 185.055 208.562 181.154 211.040 176.216 213.171 C 168.662 216.430 168.207 216.499 154.500 216.446 C 138.235 216.383 128.897 214.368 115.213 207.970 C 98.902 200.343 85.199 182.476 87.528 171.872 C 88.643 166.796 91.534 168.231 102.396 179.250 C 115.589 192.634 117.753 193.500 138.000 193.500 C 150.817 193.500 153.051 193.245 157.250 191.306 C 159.863 190.100 162.000 188.500 162.000 187.751 C 162.000 186.068 158.752 181.771 153.493 176.495 C 151.297 174.292 148.600 171.233 147.500 169.697 L 145.500 166.905 138.698 173.452 C 130.180 181.651 128.758 181.759 121.583 174.750 C 115.947 169.244 115.112 167.085 113.464 153.750 L 112.877 149.000 107.843 149.000 C 101.996 149.000 92.271 151.556 89.776 153.748 C 88.827 154.582 87.754 156.217 87.391 157.382 C 87.028 158.547 85.055 161.525 83.008 164.000 C 78.740 169.160 77.401 172.856 76.490 182.000 C 75.421 192.718 72.727 200.354 69.118 202.895 C 63.820 206.624 62.348 206.483 59.350 201.953 C 56.977 198.366 56.617 196.858 56.710 190.865 C 56.780 186.316 57.373 183.080 58.433 181.462 C 60.304 178.606 78.702 160.274 87.507 152.491 C 90.811 149.571 97.336 144.980 102.007 142.289 C 110.298 137.512 110.528 137.278 111.654 132.448 C 112.289 129.727 112.851 126.073 112.904 124.329 L 113.000 121.158 106.687 121.438 C 100.952 121.691 100.442 121.890 101.117 123.608 C 102.497 127.125 102.115 134.742 100.527 135.351 C 97.619 136.467 93.067 130.841 86.621 118.164 C 76.368 98.000 72.548 86.000 76.383 86.000 C 77.144 86.000 77.991 85.141 78.266 84.092 C 79.251 80.322 86.035 77.146 98.704 74.521 C 105.397 73.135 111.965 72.000 113.299 72.000 C 115.702 72.000 115.730 71.884 116.226 60.250 C 116.730 48.410 118.197 42.650 121.693 38.787 C 124.135 36.088 125.472 36.565 129.857 41.694 M 181.219 142.384 C 191.772 145.969 197.115 149.171 202.517 155.151 C 207.506 160.673 207.053 163.768 200.160 171.250 C 196.951 174.732 194.514 174.715 188.946 171.169 C 183.692 167.822 182.123 166.167 173.801 155.185 C 170.335 150.612 166.651 145.810 165.613 144.513 C 163.030 141.287 164.124 138.990 168.219 139.042 C 170.023 139.065 175.874 140.569 181.219 142.384 "/></g>
<g fill="#333333FF" stroke="#333333FF">
<path d="M 121.693 38.787 C 118.213 42.632 116.730 48.416 116.233 60.070 L 115.740 71.639 108.620 72.742 C 89.306 75.734 79.492 79.404 78.266 84.092 C 77.991 85.141 77.144 86.000 76.383 86.000 C 74.501 86.000 74.601 90.888 76.591 96.230 C 80.002 105.384 91.392 127.876 92.324 127.300 C 92.881 126.955 92.992 127.203 92.580 127.871 C 91.526 129.576 98.384 136.173 100.405 135.398 C 102.113 134.743 102.563 127.293 101.117 123.608 C 100.442 121.890 100.952 121.691 106.687 121.438 L 113.000 121.158 112.904 124.329 C 112.851 126.073 112.286 129.746 111.649 132.491 C 110.515 137.375 110.305 137.589 101.886 142.491 C 91.775 148.378 83.754 154.793 84.665 156.267 C 85.019 156.840 84.847 157.024 84.283 156.675 C 83.284 156.057 61.239 177.296 58.293 181.714 C 57.381 183.083 56.776 186.578 56.710 190.865 C 56.618 196.804 56.985 198.379 59.261 201.818 C 61.416 205.074 62.352 205.726 64.209 205.265 C 67.880 204.353 71.653 201.274 72.772 198.276 C 75.372 191.312 78.445 172.528 77.289 170.659 C 76.960 170.126 77.209 170.011 77.845 170.405 C 78.480 170.797 79.000 170.591 79.000 169.948 C 79.000 169.304 80.829 166.593 83.065 163.923 C 85.300 161.253 87.294 157.815 87.496 156.284 C 87.697 154.753 87.893 153.907 87.931 154.405 C 87.969 154.903 88.788 154.632 89.750 153.804 C 92.528 151.414 101.385 149.000 107.377 149.000 L 112.877 149.000 113.464 153.750 C 115.112 167.085 115.947 169.244 121.583 174.750 C 128.758 181.759 130.180 181.651 138.698 173.452 L 145.500 166.905 147.500 169.697 C 148.600 171.233 151.297 174.292 153.493 176.495 C 158.752 181.771 162.000 186.068 162.000 187.751 C 162.000 188.500 159.863 190.100 157.250 191.306 C 153.051 193.245 150.817 193.500 138.000 193.500 C 120.051 193.500 115.028 192.020 107.500 184.516 C 104.750 181.775 102.125 179.525 101.667 179.516 C 101.208 179.507 101.113 179.220 101.456 178.878 C 102.398 177.935 92.043 169.000 90.008 169.000 C 86.308 169.000 86.568 177.240 90.514 185.028 C 91.877 187.718 95.772 192.890 99.168 196.521 C 104.116 201.810 107.150 203.994 114.422 207.505 C 124.240 212.245 138.776 216.407 143.229 215.753 C 144.753 215.529 146.000 215.718 146.000 216.173 C 146.000 216.628 150.350 217.000 155.667 217.000 C 160.983 217.000 165.053 216.720 164.711 216.377 C 164.368 216.035 165.782 215.628 167.853 215.474 C 173.387 215.061 184.110 209.846 187.355 205.990 C 190.046 202.792 190.138 202.340 189.480 195.574 C 188.793 188.505 186.429 184.000 183.406 184.000 C 182.721 184.000 179.762 181.854 176.831 179.231 C 167.477 170.864 156.391 162.657 153.750 162.145 C 153.338 162.065 153.280 162.000 153.622 162.000 C 153.965 162.000 153.765 161.422 153.179 160.716 C 152.593 160.010 152.279 158.547 152.480 157.466 C 152.682 156.385 152.881 155.944 152.923 156.487 C 153.021 157.741 160.000 147.438 160.000 146.039 C 160.000 144.147 157.555 144.957 152.571 148.500 C 147.110 152.383 145.456 152.722 142.969 150.472 C 142.040 149.631 139.305 148.599 136.890 148.177 C 132.985 147.495 132.532 147.139 132.789 144.955 C 132.949 143.605 133.257 139.508 133.474 135.851 C 133.691 132.195 134.124 129.457 134.435 129.768 C 134.746 130.079 135.000 127.590 135.000 124.238 C 135.000 115.015 139.358 111.738 142.583 118.535 C 144.719 123.035 147.544 125.000 151.876 125.000 C 154.630 125.000 156.081 124.162 159.232 120.750 C 162.724 116.968 170.258 105.717 170.614 103.750 C 170.689 103.338 170.806 103.207 170.875 103.460 C 170.944 103.714 173.925 100.806 177.500 97.000 C 182.619 91.550 184.000 89.419 184.000 86.974 C 184.000 82.416 182.487 80.287 176.549 76.488 C 173.621 74.615 170.442 72.299 169.484 71.342 C 167.262 69.119 161.656 69.096 159.221 71.300 C 157.745 72.635 155.430 72.997 148.421 72.985 C 136.483 72.964 136.336 72.844 137.917 64.332 C 139.355 56.590 138.905 54.693 133.849 47.174 C 129.849 41.226 125.952 37.000 124.468 37.000 C 123.831 37.000 122.582 37.804 121.693 38.787 M 113.123 97.203 L 113.000 105.906 108.373 107.953 C 105.828 109.079 102.390 110.000 100.733 110.000 C 99.025 110.000 97.170 110.753 96.448 111.740 C 95.279 113.338 95.074 113.257 93.927 110.740 C 93.241 109.233 92.275 108.000 91.780 108.000 C 91.286 108.000 91.131 107.598 91.434 107.106 C 91.963 106.250 90.570 102.268 87.277 95.220 C 85.879 92.230 85.892 91.777 87.422 90.086 C 88.345 89.066 91.103 87.671 93.550 86.986 C 95.998 86.301 98.000 85.445 98.000 85.084 C 98.000 84.724 98.788 84.373 99.750 84.306 C 100.713 84.238 104.419 83.804 107.988 83.341 L 114.475 82.500 113.861 85.500 C 113.523 87.150 113.191 92.416 113.123 97.203 M 149.250 84.641 C 153.788 85.288 153.946 86.491 150.356 93.087 C 147.790 97.802 147.587 97.939 143.422 97.757 C 140.437 97.628 138.503 98.139 137.066 99.440 L 135.000 101.310 135.000 93.737 C 135.000 89.572 135.281 85.433 135.623 84.539 C 136.261 82.878 136.925 82.883 149.250 84.641 M 128.750 158.914 C 127.238 158.961 126.000 158.589 126.000 158.086 C 126.000 157.556 127.153 157.520 128.750 158.001 L 131.500 158.828 128.750 158.914 "/></g>
<g fill="#333333FF" stroke="#333333FF">
<path d="M 164.332 140.578 C 163.999 141.446 164.575 143.206 165.613 144.488 C 166.651 145.771 171.019 151.381 175.320 156.955 C 186.379 171.286 194.486 176.585 199.044 172.461 C 200.094 171.510 200.669 170.273 200.322 169.712 C 199.975 169.150 200.172 168.988 200.760 169.352 C 202.085 170.171 206.000 164.032 206.000 161.135 C 206.000 156.977 191.564 144.186 188.289 145.443 C 187.580 145.715 187.000 145.516 187.000 145.001 C 187.000 143.841 171.403 139.000 167.667 139.000 C 166.103 139.000 164.679 139.674 164.332 140.578 "/></g>
<g fill="#FFFFFFFF" stroke="#FFFFFFFF">
<path d="M 97.500 85.635 C 93.100 87.032 88.646 89.003 87.601 90.014 C 85.825 91.734 85.804 92.068 87.273 95.177 C 88.137 97.004 89.797 100.924 90.962 103.888 C 93.878 111.308 95.547 113.608 96.653 111.731 C 97.119 110.940 99.300 110.045 101.500 109.741 C 103.700 109.436 107.188 108.464 109.250 107.580 L 113.000 105.973 113.011 98.237 C 113.017 93.981 113.301 88.813 113.642 86.750 L 114.262 83.000 109.881 83.047 C 107.471 83.073 101.900 84.237 97.500 85.635 "/></g>
<g fill="#FFFFFFFF" stroke="#FFFFFFFF">
<path d="M 135.623 84.539 C 134.739 86.843 134.847 100.006 135.750 99.968 C 136.163 99.951 137.400 99.256 138.500 98.424 C 139.857 97.397 141.646 97.104 144.061 97.511 C 147.499 98.091 147.713 97.943 150.311 93.171 C 153.948 86.488 153.799 85.290 149.250 84.641 C 136.925 82.883 136.261 82.878 135.623 84.539 "/></g>
<g fill="#FFFFFFFF" stroke="#FFFFFFFF">
<path d="M 126.000 158.086 C 126.000 158.589 127.238 158.961 128.750 158.914 L 131.500 158.828 128.750 158.001 C 127.153 157.520 126.000 157.556 126.000 158.086 "/></g>
</svg>
